<svg width="884" height="962" viewBox="0 0 884 962" fill="none" xmlns="http://www.w3.org/2000/svg">
<g clip-path="url(#clip0_37_5)">
<path d="M603 81.97C615.87 81.45 618.8 96.17 617.64 106.36C617.45 108.06 615.93 109.85 615.96 111.61C615.99 113.37 617.61 114.8 617.82 116.64C619.8 133.73 604.08 157.44 584.88 147.09C584.58 155.38 584.79 164.06 589.05 171.41C593.99 179.93 596.14 176.19 602.17 179.29C604.29 180.38 604.89 182.69 607.15 184.31C612.91 188.45 630.71 195.91 638.18 199.28C645.03 202.37 650.52 201.18 655.7 208.76C665.68 223.34 672.17 283.05 673.86 302.6C675.42 320.64 676.99 341.65 675.91 359.64C674.86 377.05 670.47 380.94 659.38 393.11C651.31 401.98 642.07 409.56 633.2 417.58C641.69 444.75 644.75 473.37 647.86 501.6C655.69 572.72 659.12 644.37 665.95 715.6C665.38 722.96 647.6 723.12 641.86 723.09C643.89 734.23 630.4 733.38 622.86 734.1C626.9 767.67 611.87 799.89 605.36 832.09C600.54 855.93 601.63 869.33 604.61 892.85C606.28 906.03 597.89 922.59 597.61 936.33C594.81 944.6 580.57 954.6 572.11 955.83C537.24 960.92 555.13 932.67 559.87 914.1C557.27 913.62 558.11 914.58 557.41 916.09C555.39 920.46 556.29 923.27 551.58 926.31C545.93 929.95 536.72 931.85 538.86 922.1C530.94 922.12 527.93 931.18 521.8 935.54C512.32 942.28 495.69 944.22 484.37 943.09C481.3 942.78 472.32 941.02 471.81 937.57C470.26 927.2 493.01 918.72 499.38 912.12C505.4 905.89 520.11 881.35 522.38 873.12C530.6 843.32 516.89 798.98 512.03 768.44C510.12 756.43 508.77 744.23 507.87 732.1C496.25 732.17 482.8 734.97 471.43 732.04C464.55 730.27 464.53 728.09 464.87 721.1C460.14 721.73 446.43 720.78 445.86 714.59C456.06 621.01 456.79 526.08 473.62 433.41C466.4 422.62 458.68 412.99 453.69 400.78C444.89 379.24 443.46 370.04 448.15 346.89C454.7 314.53 460.5 281.54 467.34 249.08C470.26 235.22 471.89 219.76 482.93 209.67C495.72 204.16 509.26 199.97 521.54 193.28C528.25 189.62 533.07 185.59 537.92 179.59C538.4 176.49 533.86 164.96 530.83 163.59C526.48 161.62 513.17 169.67 506.32 162.15C501.98 157.39 505.01 153.54 503.65 148.82C503.16 147.13 500.12 145.44 500.01 143.44C499.93 142.07 501.69 141.06 501.7 140.6C501.73 139.41 498.17 138.5 497.52 136.88C496.66 134.75 497.32 131.49 496.4 130.07C495.25 128.29 488.14 128.46 486.96 125.44C485.81 121.8 497.13 108.34 497.64 102.43C497.84 100.08 495.02 98.76 494.93 96.63C494.85 94.89 496.6 92.63 496.79 90.52C497.14 86.6 496.56 82.64 496.99 78.73C497.34 75.59 499.9 69.4 499.83 67.56C499.76 65.54 497.36 64.83 497.09 63.5C496.71 61.62 498.49 54.38 499.65 52.4C501.95 48.46 511.96 43.4 516.43 43.18C519.7 43.02 523.8 45.28 527.33 45.16C530.86 45.04 534.08 42.65 537.44 42.2C548.34 40.75 563.12 40.53 573.63 43.83C590.31 49.06 599.37 65.98 602.97 81.99L603 81.97ZM616.86 374.09C617.01 373.94 617.48 371.47 618.43 370.17C621.55 365.91 625.23 362.33 628.71 358.4L626.86 329.1L611.87 360.64C613.04 364.55 613.7 368.74 614.84 372.64C615.16 373.74 615.21 375.73 616.85 374.09H616.86ZM490.89 383.09C492.7 381.08 497.83 374.73 497.91 372.5C497.99 370.27 496.1 369.29 495.98 367.65C495.77 364.77 498.31 360.54 497.86 356.69C497.35 352.26 492.48 345.45 492.87 340.1L486.9 361.66C490.48 366.53 487.67 374.64 488.11 377.44C488.33 378.82 491.24 380.9 490.89 383.1V383.09ZM571.83 737.14L561.89 735.09C561.2 736.05 564.93 754.98 564.92 758.54C564.85 793.24 548.57 831.79 558.85 867.62C560.44 873.18 563.93 877.47 564.89 883.08C566.37 883.33 566.13 881.2 566.38 880.1C576.93 833.17 573.53 806.32 571.84 759.63C571.57 752.16 572.17 744.6 571.84 737.14H571.83Z" fill="black"/>
<path d="M178.02 39.95C182.59 40.64 208.3 38.4 208.68 43.58C209.19 50.36 184.7 57.64 183.98 59.74C182.98 63.48 186.43 67.05 185.91 70.55C185.59 72.7 183.42 73.39 183.02 74.81C181.25 81 197.72 94.65 195.72 101.38C193.4 105.31 187.86 105.74 183.88 107.11C187.26 112.51 182.5 116.39 182.17 119.71C181.57 125.81 180.36 125.58 179.86 128.64C179.19 132.72 182.73 136.73 179.78 141.48C175.24 148.79 157.48 142.29 150.31 147L144.99 165.63C150.7 173.16 151.34 182.06 155.04 190.44C158.15 197.47 163.11 203.07 166.38 210.1C172.76 223.79 180.09 243.15 184.91 257.57C194.03 284.81 190.64 295.34 190.85 322.63C191.13 357.62 196.1 392.58 197.9 427.58C199.3 454.78 200.12 482.3 200.93 509.55C201.32 522.61 203.9 532.14 186.93 531.14C183.51 565.43 178.08 599.52 174.01 633.72C171.73 652.89 171.08 672.33 168.76 691.47C164.94 723.07 158.33 755 154.03 786.74C151.54 805.1 150.65 824.26 147.73 842.44C147.3 845.12 144.14 854.95 144.23 855.62C144.34 856.52 146.19 857.48 146.63 858.86C148.87 865.85 150.24 879.85 146.99 886.46C147.4 889.06 162.63 898.56 165.89 899.59C176.4 902.92 189.78 899.65 200.26 905.22C205.28 907.89 203.6 908.78 205.59 912.86C206.51 914.75 210.51 914.6 205.81 919.52C193.27 932.62 152.21 932.95 135.93 927.56C129.66 925.48 118.71 918.66 112.48 919.11C112.2 919.13 111.23 922.18 108.88 921.11C117.32 937.14 143.18 932.13 145.8 952.41C144.96 955.84 132.47 959.15 129.09 959.81C112.41 963.04 86.4004 961.93 71.7604 952.74C69.4704 951.3 62.0704 944.56 60.3804 944.45C59.1604 944.37 56.8704 946.59 55.1304 946.93C51.8504 947.58 36.6604 943.26 34.8104 940.69C33.0404 929.45 31.0904 917.51 33.8904 906.14C30.4104 905.48 28.3304 904.38 27.8404 900.66C26.7104 892.15 28.7804 881.94 28.9304 873.65C29.9704 814.67 24.8304 755.16 35.2004 696.92C37.9704 681.35 44.3204 663.52 45.8704 648.59C47.9204 628.88 47.2604 606.53 47.8404 586.56C48.1504 575.95 50.4604 560.79 49.8404 550.65C49.5404 545.66 41.0104 536.68 41.6804 530.31C40.3004 528.32 21.3104 529.19 20.0104 525.47L24.8504 464.72C15.8804 436.54 4.94036 405.86 1.02036 376.46C-4.11964 337.87 11.8004 296.45 15.7804 258.49C18.0904 236.51 17.8004 226.96 27.1204 205.83C36.4404 184.7 58.6804 175.35 71.8904 156.6C76.0504 150.69 79.0904 141.61 83.4504 136.09C85.2204 133.85 87.1504 135.35 88.7604 132.49C91.2204 128.09 91.6704 115.73 90.6704 110.82C89.1304 103.31 80.2804 92.52 78.7504 84.23C71.2104 83.2 61.9304 82.56 54.9004 79.58C33.5904 70.53 74.1704 64.42 75.7504 61.95C76.8804 51.68 73.2504 39.78 74.9404 29.64C76.4804 20.42 96.4104 10.11 104.67 7.36999C116.27 3.51999 149.88 -4.00001 159.85 2.61999C166.49 7.02999 174.67 31.95 178.02 39.95Z" fill="black"/>
<path d="M352.66 170.9C352.36 171.37 350.77 171.47 350.35 172.08C349.52 173.32 353.91 190.75 353.93 194.66C353.95 198.57 351.26 199.68 351.92 204.51C352.72 210.37 358.85 212.95 360.35 217.13C362.59 223.38 354.93 222.62 353.97 225.76C353.39 227.65 355.13 229.68 354.73 231.39C354.33 233.1 351.06 234.61 351.11 235.57C351.14 236.19 352.9 237.14 352.74 238.41C352.58 239.68 349.41 242.09 349.07 243.82C348.73 245.55 350 247.53 349.93 249.55C349.42 263.59 330.66 257.54 321.86 259.57L317.1 274.47C318.86 277.15 331.97 288.43 329.87 291.09C328.06 293.38 328.13 288.49 326.89 289.1C325.6 301.57 334.61 310.17 338.9 321.58C350.29 351.89 352.09 380.93 357.05 412.43C358.03 418.64 361.96 430.65 361.91 435.62C361.86 441.67 354.04 446.5 353.79 450.58C356.17 463.26 359.6 475.71 360.87 488.6C362.84 508.51 360.57 532.34 365.38 551.09C367 557.4 372.93 568.34 372.95 573.59C372.95 575.14 369.16 593.28 368.64 594.36C366.55 598.73 360.44 599.56 359.87 602.59L362.71 680.43C361.4 684.33 341.28 685.33 336.87 685.09C336.76 694.09 336.14 703.38 334.56 712.28C333.15 720.22 328.81 728.61 327.99 735.71C325.5 757.26 327.08 786.36 326.92 808.64C326.8 826.17 324.21 864.13 332.69 878.79C333.34 879.91 336.64 884.66 337.33 885.15C339.88 886.97 347.66 889.52 349.99 891.49C351.94 893.15 354.78 898.35 351.89 900.07C355.98 900.79 358.98 905.81 361.96 907.52C370 912.11 393.73 911.77 398.32 920.16C399.4 922.14 401.98 928.27 400.59 929.8C394.67 936.33 366.12 938.77 357.35 938.13C343 937.09 332.82 928.54 318.9 926.1V931.1L311.9 932.08C316.36 934.65 331.5 937.67 333.39 942.1C334.22 944.05 333.56 945.74 333.93 947.38C334.11 948.16 337.37 948.97 336.43 951.11C331.26 962.71 285.72 959.66 275.19 955.3C270.79 953.48 262.42 946.54 258.22 946.29C256.78 946.2 253.67 949.02 250.36 949.13C246.47 949.26 230.61 944.5 229.89 940.59C228.54 933.31 229.94 913.31 232.42 906.11C233.95 901.68 237.86 897.99 238.65 893.34C239.52 888.21 239.26 877.99 238.93 872.54C236.46 831.07 220.6 781.62 231.17 740.87C235.87 722.76 244.48 704.96 244.92 685.65C244.74 684.62 228.25 684.12 227.87 679.6L233.9 568.56C228.33 555.4 224.62 544.24 225.9 529.61C226.41 523.81 230.35 513.59 229.87 508.68C228.99 499.66 216.88 474.29 213.62 462.85C207.87 442.67 208.59 430.31 209.89 409.6C211.06 391.04 213.52 373.04 213.89 354.58C214.23 337.64 214.64 315.15 225.86 301.57C235.09 290.39 248.59 279.9 258.98 269.62C258.9 266.24 261.49 255.32 263.37 253.07C264.85 251.3 267.8 252.35 269.85 252.05C269.97 249.69 270.58 247.39 270.56 245.03C270.36 225.96 259.2 224.66 252.5 209.98C246.38 196.57 247.1 172.22 256.89 160.59C277.61 135.97 306.1 137.19 333.86 149.62C339.34 152.07 357.46 163.29 352.68 170.89L352.66 170.9ZM286.87 900.09C285.33 893.32 291.14 888.91 292.64 883.36C296.04 870.75 291.64 842.54 289.71 828.76C285.99 802.17 279.54 781.24 280.83 753.55C281.08 748.2 283.02 742.5 282.37 737.08C274.1 751.88 275.45 768.39 273.86 784.58C270.97 813.92 266.17 843.89 271.15 873.31C272.81 883.15 276.61 896.35 286.87 900.08V900.09Z" fill="black"/>
<path d="M844.88 288.08C848.53 287.19 849.73 283.94 854.14 284.3C864.51 285.16 863.93 297.31 860.91 304.62C857.65 312.53 853.42 312.83 848.37 306.09C847.99 309.64 853.52 313.48 855.7 316.76C863.85 328.97 858.47 341.78 856.88 355.08C860.93 357.24 866.91 344.06 867.92 351.61C869.48 363.28 856.94 373.33 845.88 372.58C852.6 380.81 863.62 382.78 869.71 391.75C876.47 401.71 882 430.22 878.81 441.52C877.48 446.24 873.02 450.18 872.24 453.07C871.65 455.28 874.12 456.31 873.94 458.53C873.78 460.49 871.34 461.28 870.88 463.59C868.8 474.22 872.72 494.01 871.91 506.62C870.43 529.59 862.29 553.5 856.31 575.58C869.78 623.28 874.69 672.91 883.92 721.56C883.08 727.3 861.19 729.17 855.9 729.12C858.44 738.19 837.1 735.03 835.87 736.1C838.71 753.01 846.67 770.47 847.9 787.55C850.28 820.56 839.74 851.85 838.82 883.55C838.45 896.45 840.41 899.24 844.33 910.12C847.23 918.15 847.36 929.27 844.62 937.35C842.61 943.28 833.98 943.37 829.93 945.66C827.52 947.03 825.31 950.75 822.79 952.52C813.94 958.74 789.83 963.73 780.87 956.57C771.32 948.94 791.93 934.58 796.5 929.74C803.72 922.09 801.12 918.96 804.32 911.06C822.24 866.78 808.59 826.5 804.89 780.55C803.64 764.96 796.33 754.52 791.84 740.09C789.4 741.87 789.02 749.23 788.81 752.55C788.11 763.82 790.44 773.03 790.89 783.55C792.22 814.24 785.04 844.03 783.81 874.55C783.63 878.93 783.11 888.88 783.83 892.63C784.29 895.06 786.38 894.56 786.84 895.85C787.77 898.5 789.58 907.66 789.84 910.61C790.22 914.89 789.81 926.48 788.67 930.41C786.79 936.86 769.88 933.83 765.84 934.49C761.22 935.24 754.44 940.47 749.4 942.14C742.74 944.34 712.52 947.98 710.01 940.44C706.66 930.35 723.81 925.42 729.77 921.52C732.53 919.72 746.25 908.27 747.24 906.13C747.69 905.16 747.15 903.33 748.28 901.07C749.94 897.75 753.08 896.23 754.71 893.45C764.71 876.46 746.14 800.7 749.82 777.56C751.91 765.56 748.87 753.17 747.85 741.11C744.08 741.96 726.13 739.95 725 736.46C724.47 734.8 725.51 731.67 723.92 730.54C718.3 730.32 691.75 727.83 689.97 722.43L702.95 641.58C702.89 637.68 699.47 634.3 698.12 630.33C691.23 609.98 703.96 604.38 708.19 586.94C713.81 563.73 712.5 537.1 717.98 513.73C720.15 504.47 726.08 496 727.76 487.51C728.58 483.38 730.7 459.63 729.91 456.71L724.91 453.59C730.71 449.01 723.74 444.85 722.9 439.53C720.97 427.17 729.54 404.36 735.35 393.1C743.16 377.97 748.75 380.4 761.16 372.91C762.55 372.07 773.33 364.19 773.83 363.58C774.33 362.97 774.87 362.48 774.84 361.59C774.52 353.35 777.48 343.15 766.35 342.05C759.75 341.4 753.44 345.5 746.86 340.56C742.61 337.36 744.68 334.26 743.78 330.64C743.08 327.84 740.37 322.11 740.13 319.46C739.92 317.2 741.59 314.8 740.66 311.78C739.83 309.11 734.13 308.13 733.79 304.54C733.47 301.16 743.25 294.59 742.9 286.54C742.8 284.27 741.04 283.2 740.94 281.65C740.7 277.72 744.4 269 739.85 266.1C739.67 268.47 741.45 273.48 738.85 275.09C727.64 252.05 751.02 235.86 770.62 230.38C802.42 221.48 840.25 226.91 844.71 265.72C845.46 272.28 845.9 281.81 844.83 288.09L844.88 288.08ZM839.88 516.59C841.07 511.92 839.01 502.84 839.88 497.59L837.89 491.1C837.67 495.65 834.61 502.43 834.81 506.59C834.98 510.02 838.22 514.2 837.89 518.09C838.17 518.38 839.78 516.96 839.88 516.59Z" fill="black"/>
</g>
<defs>
<clipPath id="clip0_37_5">
<rect width="883.93" height="961.44" fill="white"/>
</clipPath>
</defs>
</svg>
